<svg xmlns="http://www.w3.org/2000/svg" xmlns:xlink="http://www.w3.org/1999/xlink" width="100" zoomAndPan="magnify" viewBox="0 0 75 74.999997" height="100" preserveAspectRatio="xMidYMid meet" version="1.0"><defs><clipPath id="id1"><path d="M 37.5 0 C 16.789062 0 0 16.789062 0 37.5 C 0 58.210938 16.789062 75 37.5 75 C 58.210938 75 75 58.210938 75 37.5 C 75 16.789062 58.210938 0 37.5 0 " clip-rule="nonzero"/></clipPath><clipPath id="id2"><path d="M 7 6 L 70 6 L 70 69 L 7 69 Z M 7 6 " clip-rule="nonzero"/></clipPath><clipPath id="id3"><path d="M 18.605469 -4.8125 L 80.585938 17.875 L 57.894531 79.855469 L -4.082031 57.164062 Z M 18.605469 -4.8125 " clip-rule="nonzero"/></clipPath><clipPath id="id4"><path d="M 25.871094 22.5 L 49.121094 22.5 L 49.121094 52.5 L 25.871094 52.5 Z M 25.871094 22.5 " clip-rule="nonzero"/></clipPath><clipPath id="id5"><path d="M 32.238281 39.851562 L 42.738281 39.851562 L 42.738281 50.351562 L 32.238281 50.351562 Z M 32.238281 39.851562 " clip-rule="nonzero"/></clipPath></defs><path fill="#5271ff" d="M 37.5 0 C 16.789062 0 0 16.789062 0 37.5 C 0 58.210938 16.789062 75 37.5 75 C 58.210938 75 75 58.210938 75 37.5 C 75 16.789062 58.210938 0 37.5 0 " fill-opacity="1" fill-rule="nonzero"/><g clip-path="url(#id1)"><path stroke-linecap="butt" transform="matrix(0.75, 0, 0, 0.75, 0.0000015, -0.000001)" fill="none" stroke-linejoin="miter" d="M 50.000002 0.00000133333 C 22.385416 0.00000133333 -0.000002 22.38542 -0.000002 50.000005 C -0.000002 77.614591 22.385416 100.00001 50.000002 100.00001 C 77.614588 100.00001 100.000006 77.614591 100.000006 50.000005 C 100.000006 22.38542 77.614588 0.00000133333 50.000002 0.00000133333 " stroke="#004aad" stroke-width="20" stroke-opacity="1" stroke-miterlimit="4"/></g><g clip-path="url(#id2)"><g clip-path="url(#id3)"><path fill="#004aad" d="M 49.597656 6.53125 L 55.007812 19.304688 L 68.1875 23.628906 L 62.980469 36.488281 L 69.242188 48.863281 L 56.46875 54.273438 L 52.140625 67.453125 L 39.285156 62.25 L 26.90625 68.507812 L 21.496094 55.738281 L 8.316406 51.410156 L 13.523438 38.554688 L 7.261719 26.175781 L 20.035156 20.765625 L 24.359375 7.585938 L 37.21875 12.792969 L 49.597656 6.53125 " fill-opacity="1" fill-rule="nonzero"/></g></g><g clip-path="url(#id4)"><path fill="#ffffff" d="M 49.121094 50.230469 C 49.121094 42.226562 43.914062 35.742188 37.496094 35.742188 C 31.082031 35.742188 25.871094 42.226562 25.871094 50.230469 C 25.871094 51.476562 31.082031 52.496094 37.496094 52.496094 C 43.914062 52.496094 49.121094 51.476562 49.121094 50.230469 Z M 37.496094 22.503906 C 40.996094 22.503906 43.832031 25.339844 43.832031 28.839844 C 43.832031 32.339844 40.996094 35.171875 37.496094 35.171875 C 33.996094 35.171875 31.160156 32.339844 31.160156 28.839844 C 31.160156 25.339844 33.996094 22.503906 37.496094 22.503906 Z M 37.496094 22.503906 " fill-opacity="1" fill-rule="evenodd"/></g><g clip-path="url(#id5)"><path fill="#5271ff" d="M 37.488281 39.851562 C 34.585938 39.851562 32.238281 42.203125 32.238281 45.101562 C 32.238281 48 34.585938 50.351562 37.488281 50.351562 C 40.386719 50.351562 42.738281 48 42.738281 45.101562 C 42.738281 42.203125 40.386719 39.851562 37.488281 39.851562 Z M 40.257812 47.511719 L 39.839844 47.933594 C 39.765625 48.007812 39.542969 48.054688 39.535156 48.054688 C 38.207031 48.066406 36.925781 47.542969 35.984375 46.601562 C 35.042969 45.660156 34.519531 44.375 34.535156 43.039062 C 34.535156 43.039062 34.582031 42.824219 34.65625 42.75 L 35.078125 42.332031 C 35.230469 42.175781 35.527344 42.105469 35.734375 42.175781 L 35.820312 42.203125 C 36.027344 42.273438 36.246094 42.5 36.300781 42.710938 L 36.511719 43.488281 C 36.570312 43.699219 36.492188 44 36.339844 44.152344 L 36.058594 44.433594 C 36.335938 45.453125 37.136719 46.253906 38.15625 46.53125 L 38.4375 46.25 C 38.589844 46.09375 38.890625 46.019531 39.101562 46.074219 L 39.875 46.289062 C 40.085938 46.34375 40.316406 46.5625 40.382812 46.765625 L 40.414062 46.855469 C 40.480469 47.0625 40.414062 47.359375 40.257812 47.511719 Z M 40.257812 47.511719 " fill-opacity="1" fill-rule="nonzero"/></g></svg>